<?xml version="1.0" encoding="UTF-8" standalone="no"?>
<svg
   xmlns:dc="http://purl.org/dc/elements/1.1/"
   xmlns:cc="http://creativecommons.org/ns#"
   xmlns:rdf="http://www.w3.org/1999/02/22-rdf-syntax-ns#"
   xmlns:svg="http://www.w3.org/2000/svg"
   xmlns="http://www.w3.org/2000/svg"
   xmlns:sodipodi="http://sodipodi.sourceforge.net/DTD/sodipodi-0.dtd"
   xmlns:inkscape="http://www.inkscape.org/namespaces/inkscape"
   width="163.5"
   height="46"
   viewBox="0 0 163.5 46"
   version="1.1"
   id="svg8"
   sodipodi:docname="logo.svg"
   inkscape:version="0.92.1 r15371">
  <metadata
     id="metadata14">
    <rdf:RDF>
      <cc:Work
         rdf:about="">
        <dc:format>image/svg+xml</dc:format>
        <dc:type
           rdf:resource="http://purl.org/dc/dcmitype/StillImage" />
        <dc:title></dc:title>
      </cc:Work>
    </rdf:RDF>
  </metadata>
  <defs
     id="defs12" />
  <sodipodi:namedview
     pagecolor="#ffffff"
     bordercolor="#666666"
     borderopacity="1"
     objecttolerance="10"
     gridtolerance="10"
     guidetolerance="10"
     inkscape:pageopacity="0"
     inkscape:pageshadow="2"
     inkscape:window-width="1333"
     inkscape:window-height="884"
     id="namedview10"
     showgrid="false"
     inkscape:zoom="2.5137615"
     inkscape:cx="7.5583942"
     inkscape:cy="23"
     inkscape:window-x="238"
     inkscape:window-y="85"
     inkscape:window-maximized="0"
     inkscape:current-layer="svg8" />
  <path
     fill="#f5f5f5"
     d="M163 46V0"
     id="path2" />
  <path
     fill="none"
     stroke="#cdcdcd"
     stroke-miterlimit="50"
     d="M163 46V0"
     id="path4" />
  <path
     fill="#0eb4fc"
     d="M44.86 28a12.61 12.61 0 0 0 1.48-5.4v-.05-.04c0-1.38-.45-3.39-1.5-5.4-.89-1.72-2.04-2.75-2.72-2.5-.67.26-.74 2.36-.73 3.46l-.02 4.49.02 4.5c0 1.1.07 3.2.75 3.45.68.25 1.84-.79 2.72-2.5zM29.3 44c2.27-.12 4.24-.75 5.44-1.43l.03-.02.04-.03c1.2-.69 2.72-2.08 3.94-3.99 1.05-1.62 1.37-3.14.8-3.6-.55-.46-2.4.54-3.36 1.1l-3.91 2.23-3.89 2.27c-.96.55-2.74 1.65-2.62 2.37.12.71 1.6 1.19 3.53 1.1zM7.6 38.43c1.23 1.9 2.75 3.3 3.95 3.99l.04.02.03.02c1.2.7 3.17 1.32 5.44 1.43 1.94.1 3.41-.39 3.53-1.1.13-.71-1.67-1.82-2.62-2.37l-3.9-2.27-3.9-2.23c-.96-.56-2.81-1.55-3.37-1.09-.57.46-.25 1.97.8 3.6zM1.5 17a12.56 12.56 0 0 0-1.5 5.4l.01.05v.04c0 1.38.45 3.39 1.49 5.4.89 1.72 2.04 2.76 2.72 2.5.68-.25.74-2.35.74-3.45l.02-4.5-.02-4.49c0-1.1-.06-3.2-.74-3.45-.68-.25-1.83.78-2.72 2.5zM17.08 1c-2.27.11-4.24.73-5.44 1.41l-.03.03a12.54 12.54 0 0 0-4 4c-1.05 1.62-1.38 3.13-.82 3.59.56.46 2.42-.53 3.38-1.08l3.91-2.22 3.9-2.25c.96-.55 2.75-1.65 2.63-2.37-.11-.71-1.6-1.2-3.53-1.1zm21.66 5.43a12.61 12.61 0 0 0-3.96-3.98c-.01 0-.03 0-.04-.02l-.03-.02A12.7 12.7 0 0 0 29.26 1c-1.94-.1-3.4.4-3.53 1.1-.12.72 1.68 1.82 2.64 2.37l3.9 2.25 3.91 2.22c.96.55 2.82 1.54 3.38 1.08.56-.46.23-1.97-.82-3.6zm-3.97 27.42a9.27 9.27 0 0 0 3.03-2.86l.03-.02a9.23 9.23 0 0 0 1.14-3.97c.1-1.42-.22-2.51-.75-2.62-.52-.1-1.37 1.2-1.8 1.9l-1.74 2.8-1.72 2.84c-.42.7-1.2 2.04-.86 2.45.33.43 1.45.22 2.67-.52zm-15.65 4.39a9.29 9.29 0 0 0 4 1.12h.05a9.2 9.2 0 0 0 4.01-1.06c1.27-.64 2.05-1.48 1.87-1.98-.19-.5-1.74-.56-2.55-.56l-3.32-.05-3.33-.01c-.81 0-2.36.02-2.55.52-.2.5.57 1.35 1.82 2.02zM7.46 26.92a9.2 9.2 0 0 0 1.07 4.02v.03c.52.88 1.55 2 2.96 2.9 1.2.77 2.32 1 2.66.6.34-.41-.4-1.77-.8-2.48l-1.65-2.87-1.68-2.86c-.4-.7-1.22-2.02-1.75-1.93-.52.08-.88 1.17-.8 2.59zm4.08-15.86a9.34 9.34 0 0 0-2.99 2.85v.03l-.02.03c-.53.87-1.01 2.31-1.11 3.98-.1 1.42.24 2.5.77 2.6.53.1 1.36-1.2 1.78-1.9l1.72-2.84 1.69-2.84c.42-.7 1.17-2.05.83-2.47-.33-.42-1.45-.2-2.67.56zM27.2 6.63a9.29 9.29 0 0 0-4-1.07h-.07a9.3 9.3 0 0 0-3.99 1.12c-1.26.66-2.03 1.51-1.83 2.01.19.5 1.74.54 2.56.53h3.32l3.32-.04c.81 0 2.36-.06 2.55-.56.18-.5-.6-1.34-1.86-1.99zm11.75 11.31a9.21 9.21 0 0 0-1.11-3.98l-.02-.02-.01-.03a9.3 9.3 0 0 0-3-2.86c-1.21-.75-2.33-.97-2.67-.55-.33.42.43 1.77.84 2.46l1.7 2.85 1.71 2.83c.42.7 1.26 2 1.78 1.9.53-.09.87-1.18.78-2.6zM61.14 14.06c.69 0 1.34.07 1.97.22.63.15 1.18.4 1.66.73.48.33.86.77 1.15 1.3.29.54.43 1.2.43 1.97a3.6 3.6 0 0 1-2.06 3.3c.73.3 1.28.74 1.65 1.35.38.6.56 1.28.56 2a4.4 4.4 0 0 1-1.72 3.68c-.51.4-1.11.68-1.79.86-.68.18-1.39.27-2.13.27a11.28 11.28 0 0 1-2.95-.4c-.46-.14-.88-.3-1.28-.5-.39-.19-.74-.41-1.03-.66l1.56-2.26a5.15 5.15 0 0 0 1.68.83 8.46 8.46 0 0 0 1.8.29c.93 0 1.64-.2 2.13-.6.49-.39.73-.91.73-1.57 0-.67-.22-1.17-.67-1.5a2.94 2.94 0 0 0-1.8-.51h-2.01v-2.41h1.92c.32 0 .63-.05.91-.14.29-.09.54-.21.76-.38a1.81 1.81 0 0 0 .72-1.48c0-.33-.08-.6-.22-.83-.15-.23-.34-.4-.57-.55-.23-.14-.5-.25-.8-.3a4.75 4.75 0 0 0-2.57.18c-.6.19-1.1.47-1.53.84l-1.47-2.18c.63-.5 1.37-.89 2.21-1.15a9.2 9.2 0 0 1 2.76-.4zm8.51 12.82c.34-.25.62-.55.85-.9.24-.35.43-.78.58-1.29.16-.5.28-1.1.37-1.78.08-.67.15-1.47.2-2.4l.28-6.32h10.2a1912.23 1912.23 0 0 0 .01 12.71h1.32v4.77h-2.74v-2.09h-9.45v2.1h-2.73v-4.8zm4.97-9.98l-.18 3.68a64.6 64.6 0 0 1-.1 1.87c-.05.58-.12 1.14-.2 1.67a9.2 9.2 0 0 1-.38 1.5c-.16.47-.38.9-.65 1.28h6.06v-10zm22.84 7.77a4.71 4.71 0 0 1-1.7 3.77 5.3 5.3 0 0 1-1.85.98c-.7.21-1.45.32-2.24.32a7.6 7.6 0 0 1-2.24-.32 5.33 5.33 0 0 1-1.84-.98 4.67 4.67 0 0 1-1.7-3.77v-5.65a4.67 4.67 0 0 1 1.76-3.73 5.59 5.59 0 0 1 1.86-.94 7.45 7.45 0 0 1 4.32.02c.7.23 1.32.55 1.86.97a4.68 4.68 0 0 1 1.77 3.77zm-3-5.03c0-.5-.08-.93-.24-1.28A2.5 2.5 0 0 0 92.7 17a3.46 3.46 0 0 0-2.05 0c-.33.1-.63.26-.9.49a2.5 2.5 0 0 0-.63.86 3.1 3.1 0 0 0-.24 1.28v4.5c0 .5.08.93.24 1.29a2.4 2.4 0 0 0 1.53 1.35 3.7 3.7 0 0 0 2.05 0 2.43 2.43 0 0 0 1.52-1.35c.16-.36.24-.8.24-1.3zm12.65-5.45a4 4 0 0 1 3.27 1.57c.36.46.62.98.79 1.55.17.57.25 1.13.25 1.68a5.12 5.12 0 0 1-1.15 3.24c-.37.47-.83.84-1.38 1.13-.54.3-1.17.44-1.87.44h-3.65v5.78h-3V14.2zm-3.74 6.86h3.06c.69 0 1.2-.2 1.55-.58.35-.4.53-.88.53-1.46 0-.6-.18-1.1-.54-1.49-.35-.39-.87-.58-1.54-.58h-3.06zm21.53 3.62a4.68 4.68 0 0 1-1.7 3.77c-.53.44-1.14.76-1.85.98-.7.21-1.45.32-2.24.32a7.6 7.6 0 0 1-2.24-.32 5.34 5.34 0 0 1-1.84-.98 4.7 4.7 0 0 1-1.7-3.77v-5.65c0-.82.15-1.54.47-2.17.33-.62.75-1.14 1.3-1.56a5.63 5.63 0 0 1 1.85-.94 7.46 7.46 0 0 1 4.32.02c.7.23 1.32.55 1.86.97a4.72 4.72 0 0 1 1.77 3.77zm-3-5.03c0-.5-.08-.93-.24-1.28a2.47 2.47 0 0 0-1.52-1.35 3.45 3.45 0 0 0-2.05 0c-.33.1-.63.26-.9.49a2.5 2.5 0 0 0-.63.86c-.16.35-.24.78-.24 1.28v4.5c0 .5.08.93.24 1.29a2.39 2.39 0 0 0 1.53 1.35 3.69 3.69 0 0 0 2.05 0 2.39 2.39 0 0 0 1.52-1.35c.16-.36.24-.8.24-1.3zm17.35 5.37c0 .63-.1 1.21-.28 1.76a4.33 4.33 0 0 1-.84 1.45 3.9 3.9 0 0 1-1.35 1 4.5 4.5 0 0 1-1.88.36h-7.07V14.2h6.78c.76 0 1.41.12 1.96.34a3.75 3.75 0 0 1 2.15 2.26c.18.5.27 1.04.27 1.59 0 .56-.15 1.15-.45 1.74a3.1 3.1 0 0 1-1.41 1.4c.36.17.68.4.94.67a4.3 4.3 0 0 1 1.18 2.82zm-3.35-6.33c0-.56-.16-1-.5-1.3-.32-.3-.83-.44-1.53-.44h-3.04v3.37h3.08a2.2 2.2 0 0 0 1.47-.44c.35-.3.52-.7.52-1.19zm.18 6.23c0-.6-.19-1.08-.55-1.44a2.04 2.04 0 0 0-1.51-.54h-3.2v3.9h3.22c.67 0 1.18-.17 1.52-.52.34-.34.52-.81.52-1.4zm9.92-8.38a2.3 2.3 0 0 1-2.27 2.33 2.3 2.3 0 0 1-2.27-2.33 2.3 2.3 0 0 1 2.27-2.34 2.3 2.3 0 0 1 2.27 2.34zm-3.1-1.23v2.43h.4v-.94h.52l.4.94h.42l-.43-1.01a.64.64 0 0 0 .17-.12.76.76 0 0 0 .2-.35.77.77 0 0 0 .03-.2.9.9 0 0 0-.04-.27.72.72 0 0 0-.12-.24.63.63 0 0 0-.52-.24zm1.22 1.02a.38.38 0 0 1-.28.1h-.54v-.75h.54c.12 0 .21.03.28.1.07.07.1.16.1.28 0 .11-.03.2-.1.27zM60.67 37.5c-.03-.05-.06-.08-.08-.08a.94.94 0 0 0-.18.11c-.1.08-.25.15-.42.22-.17.08-.34.11-.51.11-.64 0-.96-.7-.96-2.1 0-1.07.28-1.6.83-1.6.13 0 .26.03.4.08.13.06.28.13.43.22a8.29 8.29 0 0 0 .38.2c.05 0 .08-.03.1-.08l.45-1.06a.67.67 0 0 0 .02-.08c0-.06-.04-.11-.11-.17a2.97 2.97 0 0 0-1.72-.58 2.4 2.4 0 0 0-1.82.76c-.52.53-.77 1.37-.77 2.5 0 1.07.22 1.9.66 2.49.45.6 1.11.89 1.99.89.33 0 .71-.07 1.14-.21.43-.15.65-.3.65-.47l-.02-.1zm5.62 1.55c0 .08.03.12.08.12H67.94c.01-.01.02-.03.02-.07v-4.38c0-.07-.04-.1-.12-.1h-3.68c-.06 0-.1 0-.1.02-.02.02-.03.05-.03.1v.46a39.38 39.38 0 0 0 .01 1.3l-.03.58c-.03.23-.07.41-.13.55a.86.86 0 0 1-.22.33c-.1.07-.24.13-.45.17l-.1.02c-.07.01-.1.06-.1.16v.03l.25.8c.02.07.04.12.07.15.02.03.07.04.15.04.56 0 1.02-.16 1.37-.49.25-.24.42-.58.52-1.01.07-.3.1-.84.12-1.62l.01-.37h.8zm4-4.5c0-.05-.02-.07-.06-.07l-1.5.16c-.05 0-.08.04-.08.1v4.3c0 .05.01.09.03.1.02.02.06.03.1.03h1.38c.05 0 .09 0 .1-.02.02-.02.03-.05.03-.1v-1.7h.55c0 .54.19 1 .56 1.38.4.4.93.6 1.61.6a2.53 2.53 0 0 0 1.1-.23c.23-.1.42-.23.58-.4.16-.16.3-.4.41-.72.12-.31.17-.67.17-1.08 0-.42-.05-.78-.16-1.09a2 2 0 0 0-.41-.71 2.43 2.43 0 0 0-1.73-.63c-.66 0-1.18.19-1.57.57-.31.31-.5.7-.55 1.18h-.56zM73 38.2c-.41 0-.62-.43-.62-1.3 0-.88.2-1.31.62-1.31s.62.43.62 1.3c0 .88-.2 1.31-.62 1.31zm6.35-6.25l-1.69.7a4.45 4.45 0 0 0-1.25.8 2.1 2.1 0 0 0-.36.45 2.44 2.44 0 0 0-.36 1 7.04 7.04 0 0 0-.07 1.06 18.82 18.82 0 0 0 .07 1.53c.04.28.1.52.2.72.09.2.2.38.36.53.38.4.9.59 1.58.59.7 0 1.27-.21 1.68-.63.43-.43.64-1.04.64-1.8 0-.75-.2-1.32-.6-1.72a1.8 1.8 0 0 0-1.34-.5c-.64 0-1.11.23-1.4.7h-.06v-.04c0-.35.12-.65.38-.9.24-.24.63-.46 1.16-.67l1.54-.59c.1-.03.13-.09.13-.16v-.07l-.38-.94c-.02-.05-.07-.08-.14-.08-.02 0-.05 0-.09.02zm-2.1 5c0-.77.21-1.15.63-1.15.23 0 .4.11.49.34.09.2.13.48.13.87 0 .8-.2 1.2-.62 1.2-.24 0-.4-.13-.51-.37a2.6 2.6 0 0 1-.11-.9zm7.23-1.82a2.1 2.1 0 0 0-1.66-.67c-.72 0-1.28.22-1.68.67a2.5 2.5 0 0 0-.61 1.76c0 .75.2 1.34.6 1.78.39.44.95.66 1.68.66.7 0 1.26-.22 1.66-.67.4-.44.6-1.03.6-1.75 0-.75-.2-1.34-.59-1.78zM82.8 38.2a.5.5 0 0 1-.47-.28c-.1-.2-.15-.53-.15-1.01 0-.5.05-.84.15-1.03a.5.5 0 0 1 .47-.3c.21 0 .37.1.47.3.1.2.15.53.15 1.02 0 .48-.05.82-.15 1.01a.5.5 0 0 1-.47.3zm7.07-.4c0-.21-.06-.42-.18-.63-.13-.2-.34-.34-.65-.41.46-.15.7-.48.7-1 0-.45-.18-.77-.53-.96a3.3 3.3 0 0 0-1.35-.18h-2.12c-.06 0-.1 0-.1.02-.02.02-.03.05-.03.1v4.3c0 .06 0 .1.02.1.02.02.05.03.1.03h2.14c.8 0 1.35-.14 1.66-.43.23-.22.34-.53.34-.93zm-2.15-2.2c.1 0 .2.04.3.1.08.07.13.16.13.28 0 .28-.15.42-.46.42h-.49v-.8zm.02 1.72c.14 0 .27.04.37.1.1.08.15.19.15.33 0 .12-.04.22-.13.3-.08.1-.2.14-.37.14h-.56v-.87zm2.69 1.72c0 .06 0 .1.02.1.02.02.05.03.1.03h2.26c.64 0 1.11-.14 1.4-.44.25-.25.37-.6.37-1.07 0-.47-.13-.83-.4-1.09-.3-.28-.77-.42-1.42-.42h-.7v-1.57c0-.06-.02-.1-.06-.1h-.03l-1.47.16c-.05.01-.07.04-.07.08zm2.05-1.9c.15 0 .3.04.43.12.12.09.19.23.19.42 0 .34-.2.5-.61.5h-.43v-1.04zm3.97-2.6c0-.04-.01-.06-.05-.06l-1.5.16c-.05 0-.08.04-.08.1v4.3c0 .05.01.09.03.1.02.02.05.03.1.03h1.38c.05 0 .09 0 .1-.02.02-.02.03-.05.03-.1v-1.7H97c0 .54.19 1 .56 1.38.4.4.93.6 1.61.6a2.51 2.51 0 0 0 1.1-.23c.23-.1.42-.23.58-.4.16-.16.3-.4.41-.72.12-.31.17-.67.17-1.08 0-.42-.05-.78-.16-1.09a1.97 1.97 0 0 0-.41-.71 2.44 2.44 0 0 0-1.72-.63c-.67 0-1.2.19-1.58.57-.31.31-.5.7-.55 1.18h-.57zm2.72 3.66c-.41 0-.62-.43-.62-1.3 0-.88.2-1.31.62-1.31.41 0 .62.43.62 1.3 0 .88-.2 1.31-.62 1.31z"
     id="path6"
     style="fill:#354a3f;fill-opacity:0.94117647" />
</svg>
