<?xml version="1.0" encoding="UTF-8" standalone="no"?>
<svg
   xmlns:dc="http://purl.org/dc/elements/1.1/"
   xmlns:cc="http://creativecommons.org/ns#"
   xmlns:rdf="http://www.w3.org/1999/02/22-rdf-syntax-ns#"
   xmlns:svg="http://www.w3.org/2000/svg"
   xmlns="http://www.w3.org/2000/svg"
   xmlns:sodipodi="http://sodipodi.sourceforge.net/DTD/sodipodi-0.dtd"
   xmlns:inkscape="http://www.inkscape.org/namespaces/inkscape"
   width="146"
   height="45"
   viewBox="0 0 146 45"
   version="1.1"
   id="svg4"
   sodipodi:docname="logo2.svg"
   inkscape:version="0.92.1 r15371">
  <metadata
     id="metadata10">
    <rdf:RDF>
      <cc:Work
         rdf:about="">
        <dc:format>image/svg+xml</dc:format>
        <dc:type
           rdf:resource="http://purl.org/dc/dcmitype/StillImage" />
      </cc:Work>
    </rdf:RDF>
  </metadata>
  <defs
     id="defs8" />
  <sodipodi:namedview
     pagecolor="#ffffff"
     bordercolor="#666666"
     borderopacity="1"
     objecttolerance="10"
     gridtolerance="10"
     guidetolerance="10"
     inkscape:pageopacity="0"
     inkscape:pageshadow="2"
     inkscape:window-width="1369"
     inkscape:window-height="824"
     id="namedview6"
     showgrid="false"
     inkscape:zoom="2.8150685"
     inkscape:cx="73"
     inkscape:cy="22.5"
     inkscape:window-x="0"
     inkscape:window-y="30"
     inkscape:window-maximized="0"
     inkscape:current-layer="svg4" />
  <path
     fill="#0eb4fc"
     d="M44.86 28a12.58 12.58 0 0 0 1.48-5.41v-.04-.04c0-1.38-.45-3.39-1.5-5.4-.89-1.72-2.04-2.75-2.72-2.5-.67.26-.74 2.36-.73 3.46l-.02 4.49.02 4.49c0 1.1.07 3.2.75 3.46.68.25 1.84-.79 2.72-2.51zM29.3 43.99c2.27-.11 4.24-.74 5.44-1.42l.03-.02.04-.03c1.2-.69 2.72-2.08 3.94-3.99 1.05-1.62 1.37-3.14.8-3.6-.55-.46-2.4.54-3.36 1.09l-3.91 2.24-3.89 2.27c-.96.55-2.74 1.65-2.62 2.37.12.71 1.6 1.18 3.53 1.09zM7.6 38.44a12.5 12.5 0 0 0 3.95 3.99l.04.02.03.02a12.6 12.6 0 0 0 5.44 1.43c1.94.09 3.41-.39 3.53-1.1.13-.71-1.67-1.82-2.62-2.37l-3.9-2.27-3.9-2.23c-.96-.56-2.81-1.55-3.37-1.09-.57.46-.25 1.97.8 3.6zM1.5 17.01a12.56 12.56 0 0 0-1.5 5.4l.01.05v.04c0 1.38.45 3.39 1.49 5.41.89 1.71 2.04 2.75 2.72 2.49.68-.25.74-2.35.74-3.45l.02-4.49-.02-4.5c0-1.1-.06-3.2-.74-3.45-.68-.25-1.83.78-2.72 2.5zM17.08.99a12.8 12.8 0 0 0-5.44 1.41l-.03.03a12.46 12.46 0 0 0-4 4c-1.05 1.62-1.38 3.13-.82 3.59.56.46 2.42-.53 3.38-1.08l3.91-2.22s2.94-1.71 3.9-2.25c.96-.55 2.75-1.65 2.63-2.37-.11-.71-1.6-1.19-3.53-1.11zm21.66 5.43a12.69 12.69 0 0 0-3.96-3.98l-.04-.02-.03-.02A12.8 12.8 0 0 0 29.26.99c-1.94-.08-3.4.4-3.53 1.11-.12.72 1.68 1.82 2.64 2.37l3.9 2.25 3.91 2.22c.96.55 2.82 1.54 3.38 1.08.56-.46.23-1.97-.82-3.6zm-3.97 27.42a9.35 9.35 0 0 0 3.02-2.83l.01-.03.03-.02a9.26 9.26 0 0 0 1.14-3.97c.1-1.42-.22-2.51-.75-2.62-.52-.1-1.37 1.2-1.8 1.89l-1.74 2.82-1.72 2.83c-.42.69-1.2 2.03-.86 2.45.33.43 1.45.22 2.67-.52zm-15.65 4.39a9.28 9.28 0 0 0 4 1.12h.05c1.02.01 2.51-.3 4.01-1.06 1.27-.64 2.05-1.48 1.87-1.98-.19-.5-1.74-.56-2.55-.56l-3.32-.05-3.33-.01c-.81-.01-2.36.03-2.55.52-.2.5.57 1.35 1.82 2.02zM7.46 26.92a9.2 9.2 0 0 0 1.07 4.02v.03c.52.88 1.55 2 2.96 2.91 1.2.76 2.32 1 2.66.59.34-.41-.4-1.78-.8-2.48l-1.65-2.87-1.68-2.86c-.4-.71-1.22-2.02-1.75-1.93-.52.08-.88 1.17-.8 2.59zm4.08-15.86a9.33 9.33 0 0 0-2.99 2.85v.03l-.02.03c-.53.87-1.01 2.31-1.11 3.98-.1 1.42.24 2.51.77 2.6.53.1 1.36-1.2 1.78-1.9l1.72-2.84 1.69-2.84c.42-.7 1.17-2.05.83-2.47-.33-.42-1.45-.19-2.67.56zM27.2 6.64a9.38 9.38 0 0 0-4-1.08l-.03.01-.04-.01c-1.02.01-2.5.35-3.99 1.12-1.26.66-2.03 1.51-1.83 2.01.19.5 1.74.54 2.56.53l3.32-.01 3.32-.03c.81-.01 2.36-.06 2.55-.56.18-.5-.6-1.34-1.86-1.98zm11.75 11.3a9.25 9.25 0 0 0-1.11-3.98l-.02-.02-.01-.03a9.3 9.3 0 0 0-3-2.86c-1.21-.75-2.33-.97-2.67-.55-.33.42.43 1.77.84 2.46l1.7 2.85 1.71 2.83c.42.7 1.26 2 1.78 1.91.53-.1.87-1.19.78-2.61zM61.14 14.06c.69 0 1.34.07 1.97.22.63.15 1.18.39 1.66.73.48.33.86.77 1.15 1.31.29.53.43 1.19.43 1.96a3.6 3.6 0 0 1-2.06 3.31 3.2 3.2 0 0 1 1.65 1.34c.38.61.56 1.28.56 2.01a4.37 4.37 0 0 1-1.72 3.67c-.51.4-1.11.68-1.79.86a8.3 8.3 0 0 1-2.13.27 10.79 10.79 0 0 1-2.95-.4c-.46-.14-.88-.3-1.28-.49-.39-.2-.74-.42-1.03-.67l1.56-2.26c.22.18.47.34.76.48a5.69 5.69 0 0 0 1.88.56c.3.05.59.08.84.08.93 0 1.64-.2 2.13-.59.49-.4.73-.92.73-1.58 0-.67-.22-1.17-.67-1.51a2.98 2.98 0 0 0-1.8-.5h-2.01v-2.41h1.92a3 3 0 0 0 .91-.14c.29-.09.54-.21.76-.38.22-.16.39-.37.52-.63a1.81 1.81 0 0 0-.02-1.68 1.68 1.68 0 0 0-.57-.55 2.5 2.5 0 0 0-.8-.31 4.7 4.7 0 0 0-2.57.19c-.6.19-1.1.47-1.53.84l-1.47-2.18c.63-.5 1.37-.89 2.21-1.15.85-.27 1.77-.4 2.76-.4zm8.51 12.82c.34-.25.62-.55.85-.9.24-.35.43-.78.58-1.29.16-.5.28-1.1.37-1.78.08-.67.15-1.47.2-2.39l.28-6.33h10.2a1916.7 1916.7 0 0 0 .01 12.71h1.32v4.77h-2.74v-2.09h-9.45v2.09h-2.73v-4.79zm4.97-9.98l-.18 3.68-.1 1.87a19.4 19.4 0 0 1-.2 1.67 9.24 9.24 0 0 1-.38 1.5c-.16.47-.38.9-.65 1.28h6.06v-10zm22.84 7.77a4.73 4.73 0 0 1-1.7 3.77c-.53.44-1.14.76-1.85.98a7.8 7.8 0 0 1-4.48 0 5.25 5.25 0 0 1-1.84-.98 4.69 4.69 0 0 1-1.7-3.77v-5.65c0-.82.15-1.54.48-2.17.31-.62.74-1.14 1.28-1.56a5.58 5.58 0 0 1 1.86-.94 7.46 7.46 0 0 1 4.32.02c.7.22 1.32.55 1.86.97a4.76 4.76 0 0 1 1.77 3.77zm-3-5.03c0-.5-.08-.93-.24-1.28a2.45 2.45 0 0 0-1.52-1.35 3.28 3.28 0 0 0-2.05 0 2.37 2.37 0 0 0-1.53 1.35 3.1 3.1 0 0 0-.24 1.28v4.49c0 .51.08.94.24 1.3a2.4 2.4 0 0 0 1.53 1.35 3.59 3.59 0 0 0 2.05 0 2.4 2.4 0 0 0 1.52-1.35c.16-.36.24-.79.24-1.3zm12.65-5.45a4 4 0 0 1 3.27 1.57c.36.46.62.98.79 1.55.17.57.25 1.13.25 1.68a5.1 5.1 0 0 1-2.53 4.37c-.54.29-1.17.44-1.87.44h-3.65v5.78h-3V14.19zm-3.74 6.86h3.06c.69 0 1.2-.19 1.55-.58.35-.39.53-.88.53-1.46 0-.6-.18-1.09-.54-1.49-.35-.39-.87-.58-1.54-.58h-3.06zm21.53 3.62a4.7 4.7 0 0 1-1.7 3.77c-.53.44-1.14.76-1.85.98a7.8 7.8 0 0 1-4.48 0 5.26 5.26 0 0 1-1.84-.98 4.72 4.72 0 0 1-1.7-3.77v-5.65c0-.82.15-1.54.47-2.17.33-.62.75-1.14 1.3-1.56a5.62 5.62 0 0 1 1.85-.94 7.47 7.47 0 0 1 4.32.02c.7.22 1.32.55 1.86.97.54.43.97.96 1.29 1.59.32.63.48 1.36.48 2.18zm-3-5.03c0-.5-.08-.93-.24-1.28a2.42 2.42 0 0 0-1.52-1.35 3.27 3.27 0 0 0-2.04 0 2.36 2.36 0 0 0-1.54 1.35c-.16.35-.24.78-.24 1.28v4.49c0 .51.08.94.24 1.3a2.4 2.4 0 0 0 1.53 1.35 3.57 3.57 0 0 0 2.05 0 2.37 2.37 0 0 0 1.52-1.35c.16-.36.24-.79.24-1.3zm17.35 5.37c0 .63-.1 1.21-.28 1.76a4.25 4.25 0 0 1-.84 1.45 3.8 3.8 0 0 1-1.35.99c-.54.25-1.17.37-1.88.37h-7.07V14.19h6.78c.76 0 1.41.12 1.96.34a3.67 3.67 0 0 1 2.15 2.26c.18.51.27 1.04.27 1.59 0 .56-.15 1.15-.45 1.74a3.1 3.1 0 0 1-1.41 1.39c.36.18.68.41.94.68a4.3 4.3 0 0 1 1.18 2.82zm-3.35-6.33c0-.56-.16-1-.5-1.29-.32-.3-.83-.45-1.53-.45h-3.04v3.37h3.08c.63 0 1.12-.15 1.47-.44.35-.3.52-.69.52-1.19zm.18 6.22c0-.59-.19-1.07-.55-1.43a2.05 2.05 0 0 0-1.51-.54h-3.2v3.91h3.22c.67 0 1.18-.18 1.52-.53.34-.34.52-.81.52-1.41zm9.92-8.37a2.3 2.3 0 0 1-2.27 2.33 2.3 2.3 0 0 1-2.27-2.33 2.3 2.3 0 0 1 2.27-2.34 2.3 2.3 0 0 1 2.27 2.34zm-3.1-1.23v2.43h.4v-.94h.52l.4.94h.42l-.43-1.01a.6.6 0 0 0 .17-.12.8.8 0 0 0 .2-.35.82.82 0 0 0-.01-.47.91.91 0 0 0-.12-.24.58.58 0 0 0-.21-.17.6.6 0 0 0-.31-.07zm1.22 1.02c-.07.07-.16.1-.28.1h-.54v-.76h.54c.12 0 .21.04.28.11.07.07.1.16.1.28 0 .11-.03.2-.1.27zM60.67 37.5c-.03-.05-.06-.08-.08-.08l-.18.11a2 2 0 0 1-.42.22c-.17.08-.34.11-.51.11-.64 0-.96-.7-.96-2.1 0-1.07.28-1.6.83-1.6.13 0 .26.03.4.08.13.06.28.13.43.22l.3.18.08.02c.05 0 .08-.03.1-.08l.45-1.06.02-.08c0-.06-.04-.11-.11-.17a2.61 2.61 0 0 0-.8-.42 3.1 3.1 0 0 0-.92-.16c-.74 0-1.35.26-1.82.76-.52.53-.77 1.37-.77 2.5 0 1.07.22 1.9.66 2.49.45.59 1.11.89 1.99.89.33 0 .71-.07 1.14-.21.43-.15.65-.3.65-.47l-.02-.1zm5.62 1.55c0 .08.03.12.08.12h1.45l.12-.01c.01 0 .02-.02.02-.06v-4.38c0-.07-.04-.1-.12-.1h-3.68c-.06 0-.1.01-.1.02-.02.02-.03.05-.03.11v.45a39.9 39.9 0 0 0 .01 1.3l-.03.58a1.9 1.9 0 0 1-.13.55.86.86 0 0 1-.22.33c-.1.07-.24.13-.45.17l-.1.02c-.07.01-.1.06-.1.16v.03l.25.8a.4.4 0 0 0 .07.15c.02.03.07.04.15.04a1.9 1.9 0 0 0 1.37-.49c.25-.24.42-.58.52-1.01.07-.3.1-.84.12-1.62l.01-.37h.8zm4-4.5c0-.05-.02-.07-.06-.07l-1.5.16c-.05 0-.08.04-.08.1v4.3c0 .05.01.09.03.1.02.02.06.03.1.03h1.38l.1-.02c.02-.02.03-.05.03-.11v-1.69h.55c0 .54.19 1.01.56 1.38.4.4.93.6 1.61.6a2.53 2.53 0 0 0 1.1-.23c.23-.1.42-.23.58-.4.16-.16.3-.4.41-.72.12-.31.17-.67.17-1.08 0-.42-.05-.78-.16-1.09a2.01 2.01 0 0 0-.41-.71c-.16-.17-.35-.3-.58-.4-.23-.1-.43-.17-.6-.2a4.7 4.7 0 0 0-.55-.04c-.66 0-1.18.2-1.57.58-.31.31-.5.7-.55 1.18h-.56zM73 38.2c-.41 0-.62-.43-.62-1.3 0-.88.2-1.31.62-1.31s.62.43.62 1.31c0 .87-.2 1.3-.62 1.3zm6.35-6.25l-1.69.71a4.27 4.27 0 0 0-1.25.78 3.02 3.02 0 0 0-.6.94 6.68 6.68 0 0 0-.2 1.58 18.9 18.9 0 0 0 .08 1.53c.04.28.1.52.2.72.09.2.2.38.36.53.38.39.9.59 1.58.59.7 0 1.27-.21 1.68-.63.43-.43.64-1.04.64-1.8 0-.75-.2-1.32-.6-1.72a1.8 1.8 0 0 0-1.34-.5c-.64 0-1.11.23-1.4.71h-.06v-.05c0-.35.12-.65.38-.9.24-.24.63-.46 1.16-.67l1.54-.59c.1-.03.13-.09.13-.16v-.07l-.38-.94c-.02-.05-.07-.08-.14-.08l-.09.02zm-2.1 4.99c0-.76.21-1.14.63-1.14.23 0 .4.11.49.34.09.19.13.48.13.87 0 .8-.2 1.19-.62 1.19-.24 0-.4-.12-.51-.36a2.67 2.67 0 0 1-.11-.9zm7.23-1.81c-.39-.44-.94-.67-1.66-.67s-1.28.23-1.68.67a2.5 2.5 0 0 0-.61 1.76c0 .75.2 1.34.6 1.78.39.44.95.66 1.68.66.7 0 1.26-.22 1.66-.67.4-.44.6-1.03.6-1.75 0-.75-.2-1.34-.59-1.78zM82.8 38.2a.5.5 0 0 1-.47-.28c-.1-.19-.15-.53-.15-1.01 0-.5.05-.84.15-1.03a.5.5 0 0 1 .47-.29c.21 0 .37.1.47.29.1.19.15.53.15 1.02 0 .48-.05.82-.15 1.01-.1.2-.26.29-.47.29zm7.07-.39c0-.22-.06-.44-.18-.64-.13-.2-.34-.34-.65-.41.46-.15.7-.48.7-1 0-.45-.18-.77-.53-.96a3.23 3.23 0 0 0-1.35-.18h-2.12c-.06 0-.1.01-.1.02-.02.02-.03.05-.03.11v4.29c0 .06 0 .09.02.11l.1.02h2.14c.8 0 1.35-.14 1.66-.43.23-.22.34-.53.34-.93zm-2.15-2.2c.1 0 .2.03.3.09.08.07.13.16.13.28 0 .28-.15.42-.46.42h-.49v-.79zm.02 1.71c.14 0 .27.04.37.11.1.07.15.18.15.32 0 .12-.04.22-.13.31a.52.52 0 0 1-.37.13h-.56v-.87zm2.69 1.72c0 .06 0 .09.02.11l.1.02h2.26c.64 0 1.11-.14 1.4-.44.25-.25.37-.6.37-1.07 0-.47-.13-.83-.4-1.09-.3-.28-.77-.42-1.42-.42h-.7v-1.57c0-.06-.02-.1-.06-.1h-.03l-1.47.16c-.05.01-.07.04-.07.08zm2.05-1.9c.15 0 .3.04.43.12.12.09.19.23.19.42 0 .34-.2.51-.61.51h-.43v-1.05zm3.97-2.59c0-.05-.01-.07-.05-.07l-1.5.16c-.05 0-.08.04-.08.1v4.3c0 .05.01.09.03.1.02.02.05.03.1.03h1.38l.1-.02c.02-.02.03-.05.03-.11v-1.69H97c0 .54.19 1.01.56 1.38.4.4.93.6 1.61.6a2.5 2.5 0 0 0 1.1-.23c.23-.1.42-.23.58-.4.16-.16.3-.4.41-.72.12-.31.17-.67.17-1.08 0-.42-.05-.78-.16-1.09a1.98 1.98 0 0 0-.41-.71c-.16-.17-.36-.3-.58-.4-.23-.1-.43-.17-.6-.2a4.7 4.7 0 0 0-.55-.04c-.66 0-1.18.2-1.57.58-.31.31-.5.7-.55 1.18h-.57zm2.72 3.65c-.41 0-.62-.43-.62-1.3 0-.88.2-1.31.62-1.31.41 0 .62.43.62 1.31 0 .87-.2 1.3-.62 1.3z"
     id="path2"
     style="fill:#84a1bf;fill-opacity:0.94117647" />
</svg>
